# xmcd
#
# Track frame offsets:
#	150
#	12493
#	28396
#	42216
#	51031
#	65139
#	85703
#	104045
#	120487
#	138717
#	150509
#	169314
#	184147
#
# Disc length: 2678 seconds
#
# Revision: 1
# Processed by: cddbd v1.5.1PL0 Copyright (c) Steve Scherf et al.
# Submitted via: audiograbber 1.83.01
#
DISCID=b80a740d
DTITLE=Mathias Lundqvist - Mathias Lundqvist sings the blues
DYEAR=1900
DGENRE=
TTITLE0=Good Girls
TTITLE1=Times like this
TTITLE2=A talk with Elvis
TTITLE3=Jumpin' to conclusions
TTITLE4=This is not what it looks like
TTITLE5=How come
TTITLE6=Might've been deceived
TTITLE7=My old pair of glasses
TTITLE8=I've been twice to Vegas
TTITLE9=Home sweet home
TTITLE10=Wish I could say the same
TTITLE11=I don't lie (I just never tell the truth)
TTITLE12=Some of us
EXTD=
EXTT0=T
EXTT1=
EXTT2=
EXTT3=
EXTT4=
EXTT5=
EXTT6=
EXTT7=
EXTT8=
EXTT9=
EXTT10=
EXTT11=
EXTT12=
PLAYORDER=
